# xmcd
#
# Track frame offsets:
#	150
#	12150
#	25796
#	38231
#	57509
#	71794
#	86522
#	99777
#	113883
#	129857
#	149665
#	165622
#	181417
#	195947
#
# Disc length: 2821
#
# Revision: 2
# Processed by: cddbd v1.5.1PL0 Copyright (c) Steve Scherf et al.
# Submitted via: audiograbber 1.83.01
# Normalized: r1:TDELIM( - )
#
DISCID=b50b030e
DTITLE=Various Artist - SC7220
DYEAR=1900
DGENRE=Karaoke Country
TTITLE0=Waylon Jennings - Dukes Of Hazzard, Theme
TTITLE1=George Jones - I Don't Need Your Rockin' Chair
TTITLE2=Jerry Reed - When You're Hot, You're Hot
TTITLE3=Hank Williams Jr - Family Tradition
TTITLE4=Tim McGraw - Indian Outlaw
TTITLE5=Judds, The - Girls Night Out
TTITLE6=Merle Haggard - Okie From Muskogee
TTITLE7=Waylon Jennings and Willie Nelson - Mamas Don't Let Your Babies Grow Up To Be Cowboys
TTITLE8=Joe Diffie - Prop Me Up Beside The Jukebox
TTITLE9=Johnny Lee - Lookin' For Love
TTITLE10=Joe Diffie - Pickup Man
TTITLE11=Forester Sisters, The - Men
TTITLE12=Oak Ridge Boys, The - American Made
TTITLE13=Mindy McCready - Guys Do It All The Time
EXTD=
EXTT0=
EXTT1=
EXTT2=
EXTT3=
EXTT4=
EXTT5=
EXTT6=
EXTT7=
EXTT8=
EXTT9=
EXTT10=
EXTT11=
EXTT12=
EXTT13=
PLAYORDER=
